<?xml version="1.0" encoding="UTF-8"?>
<svg width="505px" height="532px" viewBox="0 0 505 532" version="1.1" xmlns="http://www.w3.org/2000/svg" xmlns:xlink="http://www.w3.org/1999/xlink">
    <!-- Generator: Sketch 49.1 (51147) - http://www.bohemiancoding.com/sketch -->
    <title>Fader_Color</title>
    <desc>Created with Sketch.</desc>
    <defs>
        <linearGradient x1="50%" y1="0%" x2="50%" y2="97.0872471%" id="linearGradient-1">
            <stop stop-color="#00B6FF" offset="0%"></stop>
            <stop stop-color="#123E87" offset="100%"></stop>
        </linearGradient>
    </defs>
    <g id="Fader_Color" stroke="none" stroke-width="1" fill="none" fill-rule="evenodd">
        <g id="Final_Color" transform="translate(1.000000, 1.000000)">
            <path d="M484.5,148 C480.357864,148 477,144.642136 477,140.5 C477,136.357864 480.357864,133 484.5,133 C488.642136,133 492,136.357864 492,140.5 C492,144.642136 488.642136,148 484.5,148 Z M98.8855649,87 C91.7690639,87 86,81.1797017 86,74 C86,66.8202983 91.7690639,61 98.8855649,61 C106.002066,61 111.77113,66.8202983 111.77113,74 C111.77113,81.1797017 106.002066,87 98.8855649,87 Z M136.475063,59.05 C129.571504,59.05 123.975063,53.4535594 123.975063,46.55 C123.975063,39.6464406 129.571504,34.05 136.475063,34.05 C143.378622,34.05 148.975063,39.6464406 148.975063,46.55 C148.975063,53.4535594 143.378622,59.05 136.475063,59.05 Z M177.565424,38.5777778 C170.938007,38.5777778 165.565424,33.2051948 165.565424,26.5777778 C165.565424,19.9503608 170.938007,14.5777778 177.565424,14.5777778 C184.192841,14.5777778 189.565424,19.9503608 189.565424,26.5777778 C189.565424,33.2051948 184.192841,38.5777778 177.565424,38.5777778 Z M219.547352,26.8944444 C213.196078,26.8944444 208.047352,21.7457191 208.047352,15.3944444 C208.047352,9.04316982 213.196078,3.89444444 219.547352,3.89444444 C225.898627,3.89444444 231.047352,9.04316982 231.047352,15.3944444 C231.047352,21.7457191 225.898627,26.8944444 219.547352,26.8944444 Z M262.637714,22 C256.562581,22 251.637714,17.0751322 251.637714,11 C251.637714,4.92486775 256.562581,0 262.637714,0 C268.712846,0 273.637714,4.92486775 273.637714,11 C273.637714,17.0751322 268.712846,22 262.637714,22 Z M303.619641,24.8944444 C297.820651,24.8944444 293.119641,20.1934343 293.119641,14.3944444 C293.119641,8.59545457 297.820651,3.89444444 303.619641,3.89444444 C309.418631,3.89444444 314.119641,8.59545457 314.119641,14.3944444 C314.119641,20.1934343 309.418631,24.8944444 303.619641,24.8944444 Z M343.818437,33.6833333 C338.295589,33.6833333 333.818437,29.2061808 333.818437,23.6833333 C333.818437,18.1604858 338.295589,13.6833333 343.818437,13.6833333 C349.341284,13.6833333 353.818437,18.1604858 353.818437,23.6833333 C353.818437,29.2061808 349.341284,33.6833333 343.818437,33.6833333 Z M380.017232,48.1555556 C374.770527,48.1555556 370.517232,43.9022607 370.517232,38.6555556 C370.517232,33.4088504 374.770527,29.1555556 380.017232,29.1555556 C385.263937,29.1555556 389.517232,33.4088504 389.517232,38.6555556 C389.517232,43.9022607 385.263937,48.1555556 380.017232,48.1555556 Z M413.328215,68 C408.176384,68 404,63.9705627 404,59 C404,54.0294373 408.176384,50 413.328215,50 C418.480046,50 422.65643,54.0294373 422.65643,59 C422.65643,63.9705627 418.480046,68 413.328215,68 Z M441.5,92 C436.80558,92 433,88.1944204 433,83.5 C433,78.8055796 436.80558,75 441.5,75 C446.19442,75 450,78.8055796 450,83.5 C450,88.1944204 446.19442,92 441.5,92 Z M465,119 C460.581722,119 457,115.418278 457,111 C457,106.581722 460.581722,103 465,103 C469.418278,103 473,106.581722 473,111 C473,115.418278 469.418278,119 465,119 Z M67.5,123 C60.0441559,123 54,116.955844 54,109.5 C54,102.044156 60.0441559,96 67.5,96 C74.9558441,96 81,102.044156 81,109.5 C81,116.955844 74.9558441,123 67.5,123 Z M23.5,209 C15.4918711,209 9,202.508129 9,194.5 C9,186.491871 15.4918711,180 23.5,180 C31.5081289,180 38,186.491871 38,194.5 C38,202.508129 31.5081289,209 23.5,209 Z M41,163 C33.2680135,163 27,156.731986 27,149 C27,141.268014 33.2680135,135 41,135 C48.7319865,135 55,141.268014 55,149 C55,156.731986 48.7319865,163 41,163 Z M16.5,310 C7.93958638,310 1,303.060414 1,294.5 C1,285.939586 7.93958638,279 16.5,279 C25.0604136,279 32,285.939586 32,294.5 C32,303.060414 25.0604136,310 16.5,310 Z M15,259 C6.71572875,259 0,252.284271 0,244 C0,235.715729 6.71572875,229 15,229 C23.2842712,229 30,235.715729 30,244 C30,252.284271 23.2842712,259 15,259 Z M29,361 C20.163444,361 13,353.836556 13,345 C13,336.163444 20.163444,329 29,329 C37.836556,329 45,336.163444 45,345 C45,353.836556 37.836556,361 29,361 Z M86,451 C76.6111593,451 69,443.388841 69,434 C69,424.611159 76.6111593,417 86,417 C95.3888407,417 103,424.611159 103,434 C103,443.388841 95.3888407,451 86,451 Z M52.5,409 C43.3873016,409 36,401.612698 36,392.5 C36,383.387302 43.3873016,376 52.5,376 C61.6126984,376 69,383.387302 69,392.5 C69,401.612698 61.6126984,409 52.5,409 Z M177,512 C167.058875,512 159,503.941125 159,494 C159,484.058875 167.058875,476 177,476 C186.941125,476 195,484.058875 195,494 C195,503.941125 186.941125,512 177,512 Z M127.5,487 C117.835017,487 110,479.164983 110,469.5 C110,459.835017 117.835017,452 127.5,452 C137.164983,452 145,459.835017 145,469.5 C145,479.164983 137.164983,487 127.5,487 Z M231.5,527 C221.282732,527 213,518.717268 213,508.5 C213,498.282732 221.282732,490 231.5,490 C241.717268,490 250,498.282732 250,508.5 C250,518.717268 241.717268,527 231.5,527 Z M289,529 C278.50659,529 270,520.49341 270,510 C270,499.50659 278.50659,491 289,491 C299.49341,491 308,499.50659 308,510 C308,520.49341 299.49341,529 289,529 Z M399,492 C387.954305,492 379,483.045695 379,472 C379,460.954305 387.954305,452 399,452 C410.045695,452 419,460.954305 419,472 C419,483.045695 410.045695,492 399,492 Z M345.5,517 C334.730447,517 326,508.269553 326,497.5 C326,486.730447 334.730447,478 345.5,478 C356.269553,478 365,486.730447 365,497.5 C365,508.269553 356.269553,517 345.5,517 Z M445.5,454 C434.178163,454 425,444.821837 425,433.5 C425,422.178163 434.178163,413 445.5,413 C456.821837,413 466,422.178163 466,433.5 C466,444.821837 456.821837,454 445.5,454 Z M481,405 C469.40202,405 460,395.59798 460,384 C460,372.40202 469.40202,363 481,363 C492.59798,363 502,372.40202 502,384 C502,395.59798 492.59798,405 481,405 Z" id="Dotted-Circle" fill="url(#linearGradient-1)"></path>
            <path d="M102,303.157234 L102,195.074233 L167.992986,195.074233 L167.992986,211.25699 L120.855139,211.25699 L120.855139,240.727423 L165.246371,240.727423 L165.246371,256.984413 L120.855139,256.984413 L120.855139,303.157234 L102,303.157234 Z M218.906527,290.018023 C226.032914,290.018023 231.216789,287.753944 234.458305,283.225719 C237.699821,278.697493 239.320555,272.647578 239.320555,265.075792 C239.320555,257.30605 237.600845,251.181903 234.161374,246.703166 C230.721902,242.22443 225.513284,239.985095 218.535363,239.985095 C211.705908,239.985095 206.472546,242.236802 202.835119,246.740283 C199.197692,251.243764 197.379006,257.306051 197.379006,264.927326 C197.379006,272.548601 199.197692,278.635633 202.835119,283.188602 C206.472546,287.741572 211.829629,290.018023 218.906527,290.018023 Z M216.605309,304.864589 C210.419209,304.864589 204.876547,303.751107 199.977155,301.524111 C195.077764,299.297115 191.143463,296.327832 188.174135,292.616172 C185.204807,288.904512 182.953101,284.772259 181.418948,280.219289 C179.884795,275.666319 179.11773,270.890722 179.11773,265.892353 C179.11773,260.597051 179.909539,255.561641 181.493181,250.785972 C183.076822,246.010303 185.390389,241.680097 188.43395,237.795227 C191.477512,233.910356 195.498416,230.817352 200.496785,228.516123 C205.495154,226.214894 211.161537,225.064296 217.496103,225.064296 C226.70102,225.064296 233.777813,228.40474 238.726693,235.085728 L238.726693,226.99435 L256.76527,226.99435 L256.76527,303.157234 L238.281296,303.157234 L238.281296,292.764637 C232.73855,300.831312 225.513294,304.864589 216.605309,304.864589 Z M311.687384,290.018023 C315.052623,290.018023 317.997162,289.337562 320.521091,287.97662 C323.04502,286.615678 325.036914,284.735132 326.496834,282.334925 C327.956754,279.934718 329.045491,277.299479 329.763078,274.429128 C330.480666,271.558778 330.839455,268.465774 330.839455,265.150025 C330.839455,257.726704 329.231093,251.676789 326.014321,247.000098 C322.797549,242.323406 317.972463,239.985095 311.538919,239.985095 C307.233393,239.985095 303.608393,241.148064 300.663809,243.474038 C297.719225,245.800012 295.615983,248.769295 294.354018,252.381978 C293.092054,255.99466 292.461081,260.151657 292.461081,264.853093 C292.461081,268.26782 292.81987,271.435056 293.537457,274.354895 C294.255045,277.274735 295.343782,279.934718 296.803702,282.334925 C298.263622,284.735132 300.267888,286.615678 302.816561,287.97662 C305.365234,289.337562 308.322146,290.018023 311.687384,290.018023 Z M307.90151,304.864589 C298.053239,304.864589 289.801105,301.25196 283.144861,294.026595 C276.488617,286.801231 273.160545,277.274779 273.160545,265.446956 C273.160545,260.052677 273.92761,254.955407 275.461763,250.154993 C276.995916,245.354579 279.210507,241.073862 282.105602,237.312713 C285.000696,233.551564 288.798905,230.569909 293.500341,228.367657 C298.201777,226.165406 303.472255,225.064296 309.311934,225.064296 C314.557747,225.064296 318.9993,226.140662 322.636727,228.293424 C326.274154,230.446187 328.810417,232.685522 330.245592,235.011495 L330.245592,195 L348.506868,195 L348.506868,282.817438 C348.506868,283.114371 348.729564,289.894235 349.174964,303.157234 L330.319825,303.157234 L330.171359,293.432733 C329.72596,294.570975 328.983639,295.733945 327.944374,296.921676 C326.905109,298.109407 325.519444,299.334237 323.787336,300.596201 C322.055228,301.858165 319.803521,302.885043 317.032148,303.676863 C314.260775,304.468684 311.21726,304.864589 307.90151,304.864589 Z M385.093473,255.945154 L422.952216,255.945154 C422.061418,250.550874 420.057152,246.418621 416.939357,243.548271 C413.821563,240.67792 410.010982,239.242767 405.507501,239.242767 C400.2122,239.242767 395.783018,240.727409 392.219825,243.696737 C388.656631,246.666065 386.281204,250.748829 385.093473,255.945154 Z M406.843692,304.864589 C394.026093,304.864589 383.918157,301.202472 376.519581,293.87813 C369.121005,286.553787 365.421773,276.977848 365.421773,265.150025 C365.421773,259.805234 366.312558,254.732708 368.094155,249.932294 C369.875752,245.131881 372.387271,240.875908 375.628787,237.164248 C378.870304,233.452587 382.977812,230.508048 387.951437,228.330541 C392.925061,226.153034 398.430608,225.064296 404.468242,225.064296 C410.505875,225.064296 415.776354,226.103545 420.279834,228.182075 C424.783315,230.260605 428.346456,233.168028 430.969362,236.904433 C433.592268,240.640837 435.534675,244.83495 436.796639,249.486897 C438.058604,254.138845 438.689576,259.285603 438.689576,264.927326 C438.689576,266.362501 438.565856,267.451239 438.318412,268.193571 L384.870774,268.193571 C385.167707,275.616891 387.431786,281.110065 391.663078,284.673259 C395.894371,288.236453 401.523638,290.018023 408.551047,290.018023 C416.766188,290.018023 424.783254,287.296179 432.602484,281.852411 L437.576084,295.214321 C432.77567,298.53007 427.938212,300.967357 423.063566,302.526255 C418.188919,304.085152 412.782348,304.864589 406.843692,304.864589 Z M457.163371,303.157234 L457.163371,246.294886 C457.163371,243.325558 457.03965,240.232554 456.792206,237.015782 C456.544762,233.79901 456.297322,231.324607 456.049878,229.592499 L455.678714,226.99435 L475.276181,226.99435 L475.276181,237.015782 C478.294998,233.056678 481.301398,230.075022 484.29547,228.070726 C487.289542,226.066429 490.667102,225.064296 494.428251,225.064296 C496.655247,225.064296 499.179138,225.435457 502,226.177789 L502,242.286313 C498.68425,241.197559 495.615991,240.653191 492.795129,240.653191 C487.697783,240.653191 483.540786,242.311041 480.324014,245.62679 C477.107242,248.94254 475.49888,253.742882 475.49888,260.027959 L475.49888,303.157234 L457.163371,303.157234 Z" id="Fader-(Muli)" fill="#12448D"></path>
        </g>
    </g>
</svg>
